<svg width="143" height="20" viewBox="0 0 143 20" fill="none" xmlns="http://www.w3.org/2000/svg">
<g clip-path="url(#clip0_1_1315)">
<path d="M104.028 9.48799C103.931 9.4326 103.923 9.29769 104.009 9.2281C104.786 8.61034 105.395 7.62335 105.395 6.45031C105.395 5.13385 104.918 4.06591 104.035 3.3317C103.16 2.60459 101.922 2.23535 100.445 2.23535H94.6306V18.0145H100.768C102.382 18.0145 103.708 17.5771 104.637 16.7491C105.57 15.9169 106.064 14.7212 106.064 13.2812C106.064 12.1621 105.766 11.2603 105.246 10.5616C104.914 10.1157 104.496 9.76207 104.026 9.48941L104.028 9.48799ZM97.2479 10.8371H100.447C101.51 10.8371 102.257 11.0672 102.732 11.4606C103.197 11.844 103.452 12.4234 103.452 13.2371C103.452 14.0509 103.198 14.6062 102.735 14.9825C102.26 15.3688 101.513 15.5932 100.449 15.5932H97.2493V10.8385L97.2479 10.8371ZM102.213 7.96418C101.826 8.27661 101.22 8.45981 100.361 8.45981H97.2479V4.56863H100.361C101.22 4.56863 101.826 4.75041 102.213 5.06426C102.588 5.36675 102.804 5.83256 102.804 6.51422C102.804 7.19589 102.588 7.66169 102.213 7.96418Z" fill="#00204E"/>
<path d="M125.093 6.29834C123.759 6.29834 122.636 6.85361 121.816 7.70427C121.765 7.75682 121.677 7.72274 121.677 7.65031V6.4716H119.192V18.0145H121.677V12.9133C121.677 11.5202 121.992 10.438 122.518 9.71235C123.036 8.99802 123.77 8.61174 124.682 8.61174C125.371 8.61174 125.898 8.84748 126.254 9.22382C126.612 9.60158 126.822 10.1497 126.822 10.8172V18.0145H129.308V10.4707C129.308 9.23518 128.873 8.18712 128.116 7.44723C127.359 6.70876 126.303 6.29834 125.093 6.29834Z" fill="#00204E"/>
<path d="M45.9157 2.23535H43.6818L37.4375 18.0145H40.1684L40.2494 17.8071L41.6212 14.2696C41.6454 14.2085 41.7036 14.1673 41.7703 14.1673H47.8301C47.8954 14.1673 47.955 14.2085 47.9792 14.2696L49.4306 18.0145H52.1842L45.9171 2.23535H45.9157ZM46.7834 11.7673H42.8156C42.7034 11.7673 42.6253 11.6537 42.6664 11.55L44.6589 6.43469C44.7114 6.29836 44.9046 6.29836 44.9571 6.43469L46.9325 11.55C46.9723 11.6551 46.8956 11.7673 46.7834 11.7673Z" fill="#00204E"/>
<path d="M136.866 11.0359L141.82 6.47162H138.425L133.968 10.3926C133.917 10.4381 133.836 10.4011 133.836 10.333V2.23535H131.33V18.0145H133.836V13.862C133.836 13.8166 133.855 13.774 133.889 13.7441L134.789 12.9247C134.859 12.8622 134.967 12.8707 135.024 12.946L138.81 17.8881L138.908 18.0145H142.015L136.848 11.2518C136.799 11.1865 136.806 11.0927 136.867 11.0374L136.866 11.0359Z" fill="#00204E"/>
<path d="M55.9887 2.23535H53.5034V18.0145H55.9887V2.23535Z" fill="#00204E"/>
<path d="M87.476 7.47563C86.6154 6.70734 85.4154 6.29834 84.0336 6.29834C81.6023 6.29834 79.6553 7.80084 79.3031 10.1412L81.6534 10.5474C81.7216 9.8856 81.99 9.37577 82.3905 9.03068C82.7924 8.68417 83.3505 8.48251 84.0321 8.48251C84.7692 8.48251 85.35 8.70121 85.742 9.05908C86.1027 9.38714 86.3271 9.8572 86.3598 10.4508C86.3626 10.4934 86.3299 10.5303 86.2873 10.536L84.5349 10.732C82.7768 10.9067 81.4163 11.2873 80.4889 11.9249C79.5388 12.5768 79.0588 13.4871 79.0588 14.6431C79.0588 15.6741 79.4707 16.5688 80.1864 17.2021C80.9008 17.8327 81.8991 18.1877 83.0565 18.1877C84.2139 18.1877 85.3003 17.7958 86.097 17.1027C86.2021 17.0118 86.364 17.0829 86.364 17.2206V18.0159H88.8279V10.7107C88.8279 9.36299 88.3352 8.25103 87.4717 7.47847L87.476 7.47563ZM84.6087 12.8026H84.6101L86.2788 12.6151C86.3271 12.6094 86.3683 12.6492 86.3683 12.6975C86.3555 14.0267 86.0672 14.6175 85.573 15.1557C85.0717 15.7025 84.3261 16.0263 83.342 16.0263C82.7753 16.0263 82.3223 15.8644 82.0184 15.6159C81.7187 15.3702 81.5483 15.0293 81.5483 14.6218C81.5483 14.1787 81.7599 13.7981 82.2485 13.4842C82.7498 13.1619 83.5308 12.9204 84.6087 12.804V12.8026Z" fill="#00204E"/>
<path d="M75.2571 13.8619C75.1207 14.5166 74.8026 15.0193 74.3581 15.3601C73.9122 15.7024 73.32 15.8955 72.6128 15.8955C71.6272 15.8955 70.8376 15.5348 70.2923 14.9156C69.7427 14.2922 69.4146 13.3805 69.4146 12.2415C69.4146 11.1026 69.7427 10.1908 70.2923 9.5674C70.839 8.94822 71.6286 8.58751 72.6128 8.58751C74.0059 8.58751 75.0043 9.44101 75.2116 10.5899L77.6656 10.1071C77.2439 7.76099 75.2216 6.29541 72.5702 6.29541C70.8717 6.29541 69.4331 6.88619 68.4191 7.93993C67.4066 8.99367 66.8428 10.4834 66.8428 12.2387C66.8428 13.994 67.4066 15.4851 68.4191 16.5374C69.4331 17.5912 70.8717 18.1819 72.5702 18.1819C73.8795 18.1819 75.0313 17.8369 75.9231 17.1779C76.8178 16.5176 77.4313 15.5547 77.6855 14.3575L75.2571 13.8562V13.8619Z" fill="#00204E"/>
<path d="M63.9018 1.84619C62.9801 1.84619 62.3027 2.56052 62.3027 3.46657C62.3027 4.37261 62.9844 5.06564 63.9018 5.06564C64.8192 5.06564 65.5449 4.36551 65.5449 3.46657C65.5449 2.56762 64.8348 1.84619 63.9018 1.84619Z" fill="#00204E"/>
<path d="M60.5714 2.23535H58.0862V18.0145H60.5714V2.23535Z" fill="#00204E"/>
<path d="M115.747 7.47563C114.886 6.70734 113.686 6.29834 112.304 6.29834C109.873 6.29834 107.926 7.80084 107.574 10.1412L109.924 10.5474C109.992 9.8856 110.261 9.37577 110.661 9.03068C111.063 8.68417 111.621 8.48251 112.303 8.48251C113.04 8.48251 113.621 8.70121 114.013 9.05908C114.373 9.38714 114.598 9.8572 114.631 10.4508C114.633 10.4934 114.601 10.5303 114.558 10.536L112.806 10.732C111.048 10.9067 109.687 11.2873 108.76 11.9249C107.81 12.5768 107.33 13.4871 107.33 14.6431C107.33 15.6741 107.741 16.5688 108.457 17.2021C109.172 17.8327 110.17 18.1877 111.327 18.1877C112.485 18.1877 113.571 17.7958 114.368 17.1027C114.473 17.0118 114.635 17.0829 114.635 17.2206V18.0159H117.099V10.7107C117.099 9.36299 116.606 8.25103 115.742 7.47847L115.747 7.47563ZM112.881 12.8026H112.882L114.551 12.6151C114.599 12.6094 114.64 12.6492 114.64 12.6975C114.628 14.0267 114.339 14.6175 113.845 15.1557C113.344 15.7025 112.598 16.0263 111.614 16.0263C111.048 16.0263 110.594 15.8644 110.291 15.6159C109.991 15.3702 109.821 15.0293 109.821 14.6218C109.821 14.1787 110.032 13.7981 110.521 13.4842C111.022 13.1619 111.803 12.9204 112.881 12.804V12.8026Z" fill="#00204E"/>
<path d="M62.9927 6.47168H62.6689V6.79547V18.0131H65.1542V6.79547V6.47168H64.8304H62.9927Z" fill="#00204E"/>
<path d="M26.4557 15.4031C26.1716 15.6062 25.8138 15.6687 25.4687 15.7099C24.1806 15.8675 22.8755 15.8079 21.5803 15.7156C16.4465 15.3534 10.6993 14.4729 6.38204 13.138C5.92618 12.996 5.31126 12.7972 4.6438 12.6055L4.93351 10.2168C11.4945 12.0005 17.1367 12.783 23.337 12.783C24.6677 12.783 26.1688 12.6864 27.0521 12.5075V13.2332C27.0507 14.0086 27.0961 14.9473 26.4557 15.4031Z" fill="#FFCC89"/>
<path d="M31.3311 17.1326C31.3311 18.9177 28.8487 19.5 27.4598 19.5C21.8559 19.5 8.62737 15.0194 5.17076 15.0194C3.49216 15.0194 0.00146484 15.3035 0.00146484 13.0525C0.00146484 11.0019 4.51608 12.5598 6.38356 13.1377C10.7008 14.4727 16.4481 15.3532 21.5819 15.7167C22.877 15.8076 24.1807 15.8672 25.4702 15.711C25.8153 15.6684 26.1732 15.6059 26.4572 15.4043C27.0977 14.9484 27.0536 14.0083 27.0536 13.2329C28.2153 13.7399 31.3325 14.8888 31.3325 17.1326H31.3311Z" fill="#FF6100"/>
<path d="M27.065 10.3387C27.065 11.9307 27.0522 12.5058 27.0522 12.5073C26.1703 12.6876 24.6678 12.7828 23.3386 12.7828C17.1382 12.7828 11.496 12.0003 4.93359 10.2166C4.98756 9.76071 5.46614 5.7474 5.60106 5.2532C6.10947 3.38146 7.4941 1.7838 9.3701 1.22569C11.0601 0.724382 12.8267 0.5 14.5934 0.5C18.6478 0.5 23.0616 1.65457 25.0484 3.33033C27.109 5.06716 27.0636 7.8066 27.0636 10.3387H27.065Z" fill="#FF6100"/>
</g>
<defs>
<clipPath id="clip0_1_1315">
<rect width="142.014" height="19" fill="white" transform="translate(0 0.5)"/>
</clipPath>
</defs>
</svg>
