<?xml version="1.0" encoding="UTF-8"?>
<svg version="1.1" xmlns="http://www.w3.org/2000/svg" width="1024" height="1024">
<path d="M0 0 C3.57211304 0.58531009 7.14951164 1.02793088 10.7421875 1.46875 C22.18269517 3.01194221 32.81972692 5.93383477 43.8046875 9.40625 C45.36582275 9.89762451 45.36582275 9.89762451 46.95849609 10.39892578 C65.62705097 16.41791016 83.02872658 25.23977354 100.2421875 34.53125 C100.2421875 35.19125 100.2421875 35.85125 100.2421875 36.53125 C100.92152344 36.6034375 101.60085938 36.675625 102.30078125 36.75 C106.15163169 37.77280224 109.06998742 39.79302545 112.3046875 42.03125 C112.9644458 42.48048828 113.6242041 42.92972656 114.30395508 43.39257812 C124.64085871 50.48416031 135.08090347 57.93848537 144.2421875 66.53125 C144.2421875 67.19125 144.2421875 67.85125 144.2421875 68.53125 C144.77328125 68.7375 145.304375 68.94375 145.8515625 69.15625 C149.24992186 71.11086192 151.75274678 73.75248717 154.4921875 76.53125 C155.04648437 77.0778125 155.60078125 77.624375 156.171875 78.1875 C160.2421875 82.2778633 160.2421875 82.2778633 160.2421875 84.53125 C160.81324219 84.75683594 161.38429688 84.98242188 161.97265625 85.21484375 C164.88838425 86.90606636 166.4642574 88.95379298 168.5546875 91.59375 C169.33328125 92.5734375 170.111875 93.553125 170.9140625 94.5625 C171.68234375 95.5421875 172.450625 96.521875 173.2421875 97.53125 C173.94859375 98.4078125 174.655 99.284375 175.3828125 100.1875 C180.2421875 106.27159553 180.2421875 106.27159553 180.2421875 108.53125 C180.9021875 108.53125 181.5621875 108.53125 182.2421875 108.53125 C193.50289504 122.85553239 203.27858092 140.7517847 210.2421875 157.53125 C210.70496094 158.63082031 211.16773438 159.73039063 211.64453125 160.86328125 C214.92465934 168.77908442 217.68677603 176.7656357 220.15625 184.96875 C220.97408007 187.65170333 221.84791886 190.27256428 222.8046875 192.90625 C226.26964456 203.22281708 228.10246616 214.20116617 229.9296875 224.90625 C230.04892578 225.59388428 230.16816406 226.28151855 230.29101562 226.98999023 C232.3824819 239.76999769 232.42850473 252.55785582 232.42749023 265.47338867 C232.42966548 268.56247989 232.44784276 271.65120654 232.46679688 274.74023438 C232.51243907 290.62816995 231.59045544 306.29256673 228.4921875 321.90625 C228.24057861 323.19450684 228.24057861 323.19450684 227.98388672 324.50878906 C223.84902019 344.83947328 217.3900768 364.90402613 208.2421875 383.53125 C207.640436 384.78506556 207.038882 386.03897592 206.4375 387.29296875 C188.9967351 423.28736002 163.30592449 457.27999715 131.2421875 481.53125 C130.57380859 482.04365234 129.90542969 482.55605469 129.21679688 483.08398438 C111.20035331 496.85941681 92.38167495 508.58754109 71.50390625 517.53515625 C69.72000782 518.320811 67.95555492 519.15061742 66.19921875 519.99609375 C60.1032309 522.91902344 54.27133645 525.27073907 47.70703125 526.890625 C45.54163477 527.45342218 43.5623123 528.13179632 41.4921875 528.96875 C27.20865881 534.53641118 11.47090783 537.3957388 -3.71801758 538.88525391 C-7.74615004 539.24965756 -7.74615004 539.24965756 -11.70193481 540.04902649 C-14.02265743 540.59337162 -16.10448734 540.66542628 -18.48779297 540.67651367 C-19.89108353 540.68608345 -19.89108353 540.68608345 -21.32272339 540.69584656 C-22.83360031 540.69751579 -22.83360031 540.69751579 -24.375 540.69921875 C-25.42374298 540.70254715 -26.47248596 540.70587555 -27.55300903 540.70930481 C-29.77719688 540.71436864 -32.00139233 540.7167133 -34.22558594 540.71655273 C-37.58541916 540.71871944 -40.94491323 540.73682593 -44.3046875 540.75585938 C-55.33397282 540.78466129 -65.88944827 540.54478125 -76.7578125 538.53125 C-78.94436953 538.21221885 -81.13179311 537.89902918 -83.3203125 537.59375 C-104.36393115 534.29776154 -125.22639364 527.94875225 -144.7578125 519.53125 C-146.01908818 519.01064402 -147.28082956 518.49116526 -148.54296875 517.97265625 C-156.96345848 514.46291702 -164.72443339 510.392599 -172.453125 505.546875 C-175.49427304 503.69199038 -178.56762326 502.10910036 -181.7578125 500.53125 C-196.88543948 491.65698858 -210.55900111 480.38468678 -223.48046875 468.5859375 C-225.4315741 466.82559202 -227.41794794 465.13940677 -229.4453125 463.46875 C-232.56113886 460.81667454 -235.18564198 457.88766122 -237.828125 454.76953125 C-239.96657545 452.28910188 -242.20416253 449.91918455 -244.4453125 447.53125 C-269.7578125 419.75299658 -269.7578125 419.75299658 -269.7578125 410.53125 C-270.4178125 410.53125 -271.0778125 410.53125 -271.7578125 410.53125 C-282.46422535 392.18101522 -291.11550732 373.40718029 -297.9453125 353.28125 C-298.19563232 352.5483374 -298.44595215 351.8154248 -298.70385742 351.06030273 C-300.18392513 346.61209113 -301.31932633 342.18446213 -302.28442383 337.59814453 C-302.91569338 334.84191553 -303.85759913 332.21011074 -304.7578125 329.53125 C-309.19400946 310.32251716 -310.09424816 290.92634657 -310.01855469 271.27661133 C-310.00781243 267.96872692 -310.01853213 264.66138398 -310.03125 261.35351562 C-310.04207628 245.43643198 -309.36285958 229.60544421 -306.1328125 213.96875 C-305.9687793 213.16687256 -305.80474609 212.36499512 -305.63574219 211.53881836 C-298.52232163 178.65326333 -285.10288082 149.12118192 -267.7578125 120.53125 C-267.15324219 119.52578125 -266.54867187 118.5203125 -265.92578125 117.484375 C-262.00590291 111.13178527 -257.59499925 105.24401534 -252.9921875 99.37890625 C-251.64956434 97.66776589 -250.33655149 95.93183889 -249.0859375 94.15234375 C-248.64765625 93.61738281 -248.209375 93.08242188 -247.7578125 92.53125 C-247.0978125 92.53125 -246.4378125 92.53125 -245.7578125 92.53125 C-245.50386719 91.96148437 -245.24992187 91.39171875 -244.98828125 90.8046875 C-237.75362868 77.43780561 -221.70177016 65.50688683 -209.7578125 56.53125 C-209.21189453 56.11810547 -208.66597656 55.70496094 -208.10351562 55.27929688 C-201.21802606 50.08340627 -194.23060484 45.06174178 -187.0078125 40.34375 C-186.42354492 39.95711182 -185.83927734 39.57047363 -185.23730469 39.17211914 C-182.50097185 37.41761359 -181.07755407 36.53125 -177.7578125 36.53125 C-177.7578125 35.87125 -177.7578125 35.21125 -177.7578125 34.53125 C-176.60667969 33.96277344 -175.45554687 33.39429688 -174.26953125 32.80859375 C-171.3897043 31.36962988 -168.54089603 29.88945316 -165.71484375 28.34765625 C-157.24938685 23.73279946 -148.87567932 19.73515036 -139.7578125 16.53125 C-138.89542969 16.20898438 -138.03304687 15.88671875 -137.14453125 15.5546875 C-134.35943219 14.51502989 -131.56181922 13.51882469 -128.7578125 12.53125 C-128.13342285 12.30824219 -127.5090332 12.08523438 -126.86572266 11.85546875 C-109.7620253 5.78209319 -92.68684726 1.38991945 -74.56640625 -0.109375 C-71.04073493 -0.34134023 -71.04073493 -0.34134023 -68.80541992 -0.97143555 C-66.56484721 -1.51561661 -64.49005865 -1.67779161 -62.1875 -1.78515625 C-60.85658325 -1.84823975 -60.85658325 -1.84823975 -59.4987793 -1.91259766 C-58.55301025 -1.95175293 -57.60724121 -1.9909082 -56.6328125 -2.03125 C-55.65159424 -2.0729834 -54.67037598 -2.1147168 -53.65942383 -2.15771484 C-35.74117651 -2.86869883 -17.73051281 -3.0066705 0 0 Z " fill="#FDFDFD" transform="translate(550.7578125,244.46875)"/>
<path d="M0 0 C1.06154297 0.58974609 1.06154297 0.58974609 2.14453125 1.19140625 C2.80066406 1.55363281 3.45679688 1.91585938 4.1328125 2.2890625 C9.2154944 5.49975021 12.9881908 10.24931531 14.69522446 16.06877959 C15.45905926 19.67730754 15.29250456 23.34857212 15.29170227 27.02206421 C15.29537896 27.92371359 15.29905565 28.82536296 15.30284375 29.75433505 C15.31387561 32.78202989 15.31772355 35.80969041 15.3215332 38.83740234 C15.32779808 41.00557057 15.3344449 43.17373772 15.34144592 45.34190369 C15.35884976 51.23650606 15.36940539 57.13110033 15.37765145 63.02572203 C15.38280151 66.70698532 15.38887715 70.38824609 15.39516258 74.0695076 C15.41421047 85.58329956 15.4284441 97.09708511 15.43677455 108.61088979 C15.44655523 121.90986591 15.47289807 135.20860592 15.51327544 148.50752771 C15.54340446 158.78277778 15.55824026 169.05798014 15.56155556 179.33327353 C15.56390912 185.47258663 15.57290991 191.61172221 15.59801674 197.75098801 C15.62124702 203.52448372 15.62555092 209.29768439 15.61525536 215.07121468 C15.61475871 217.1908332 15.62111696 219.31046601 15.6348114 221.43004036 C15.6524558 224.32264307 15.64546077 227.21417827 15.63227844 230.10678101 C15.64324769 230.94647505 15.65421693 231.7861691 15.66551858 232.65130842 C15.59817727 238.76719316 13.90896759 242.40712946 9.51171875 246.8359375 C3.78890812 251.31531022 0.31337432 251.74119722 -6.85546875 251.19140625 C-12.79159681 249.70737423 -15.40430534 246.97237564 -18.59405518 242.00149536 C-21.04636144 236.53841864 -20.58354281 230.85436006 -20.44140625 224.96875 C-20.43536377 223.77866333 -20.42932129 222.58857666 -20.4230957 221.36242676 C-20.39189298 216.95089631 -20.30812524 212.53986351 -20.23046875 208.12890625 C-20.10671875 198.24953125 -19.98296875 188.37015625 -19.85546875 178.19140625 C-42.62546875 178.19140625 -65.39546875 178.19140625 -88.85546875 178.19140625 C-89.51546875 179.84140625 -90.17546875 181.49140625 -90.85546875 183.19140625 C-92.25352239 186.20026083 -93.74559657 189.162053 -95.23046875 192.12890625 C-95.66746094 193.00208496 -96.10445313 193.87526367 -96.5546875 194.77490234 C-101.28403617 204.14867124 -106.3137792 213.3492922 -111.40039062 222.53271484 C-112.81598823 225.11926818 -114.1925021 227.72296029 -115.55859375 230.3359375 C-125.01222537 248.24365846 -125.01222537 248.24365846 -133.85546875 251.19140625 C-139.8038702 251.79085756 -144.62045375 251.31228058 -149.85546875 248.19140625 C-154.26410417 243.36018142 -156.42365157 238.626696 -156.31640625 231.9453125 C-155.41585289 226.56488779 -152.54813395 221.92812375 -149.95019531 217.19726562 C-148.83873918 215.16075278 -147.76095273 213.10958654 -146.69140625 211.05078125 C-142.99810427 203.95010016 -139.23420552 196.88783039 -135.44140625 189.83984375 C-127.65111706 175.36145859 -120.00978324 160.81743342 -112.49212646 146.19564819 C-112.16730286 145.56389679 -111.84247925 144.93214539 -111.5078125 144.28125 C-111.18895081 143.66101959 -110.87008911 143.04078918 -110.54156494 142.40176392 C-107.54296569 136.57408544 -104.49712933 130.7721764 -101.43579102 124.97729492 C-98.26512426 118.97513049 -95.11875585 112.96056249 -91.98046875 106.94140625 C-91.4788623 105.97944336 -90.97725586 105.01748047 -90.46044922 104.02636719 C-88.92518257 101.08152249 -87.39026209 98.13649765 -85.85546875 95.19140625 C-79.80465589 83.58059426 -73.75192024 71.97112251 -67.6418457 60.39135742 C-65.39806761 56.13536235 -63.16793176 51.87271474 -60.953125 47.6015625 C-56.01115378 38.07330132 -51.03792264 28.56298467 -45.91796875 19.12890625 C-45.26356812 17.90699585 -45.26356812 17.90699585 -44.59594727 16.66040039 C-40.98254766 10.05775282 -37.44455772 4.68766314 -30.73046875 0.87890625 C-29.88226563 0.38777344 -29.0340625 -0.10335938 -28.16015625 -0.609375 C-19.85050509 -4.93321044 -8.28232143 -3.94200041 0 0 Z " fill="#020202" transform="translate(480.85546875,387.80859375)"/>
<path d="M0 0 C17.33320435 -0.11692786 34.66628519 -0.20503424 51.99979401 -0.25906086 C60.04849959 -0.28481589 68.09695977 -0.31991433 76.14550781 -0.37719727 C83.16263227 -0.42711547 90.17957896 -0.45931066 97.19687605 -0.47044247 C100.9107766 -0.47694714 104.62416869 -0.49217735 108.33790588 -0.52865028 C112.48916952 -0.56908752 116.63955555 -0.56994406 120.79101562 -0.56762695 C122.01525238 -0.58560333 123.23948914 -0.60357971 124.50082397 -0.62210083 C131.62161759 -0.57911114 136.54776054 0.2183974 142 5 C146.61866865 10.09237825 147.41965663 13.33910986 147.33984375 20.10546875 C146.81673098 24.56094648 145.18991082 27.85215394 142 31 C136.16410285 35.08432219 131.80949697 35.56338124 124.78540039 35.46655273 C123.28158562 35.47001205 123.28158562 35.47001205 121.74739075 35.47354126 C119.57959879 35.47616327 117.41178095 35.46976391 115.24403572 35.45528984 C111.80909531 35.43334742 108.37503283 35.43713889 104.94004822 35.44776917 C96.41054053 35.46940568 87.88122951 35.45208372 79.35174561 35.42626953 C72.13876485 35.40484731 64.92634838 35.40294892 57.713377 35.42918587 C54.3363074 35.43352798 50.96022534 35.40892347 47.58326721 35.38365173 C45.50350509 35.38892437 43.42374597 35.3956481 41.34399414 35.40405273 C40.41127686 35.38914291 39.47855957 35.37423309 38.51757812 35.35887146 C30.78806318 35.44276091 25.99351297 38.04745339 20.53808594 43.42822266 C18.06847032 49.16321892 18.39444277 54.98616939 18.390625 61.1484375 C18.37563091 62.52993701 18.35890117 63.91141867 18.34051514 65.2928772 C18.29696625 68.91287087 18.27687065 72.53262279 18.26177979 76.15283203 C18.2421633 79.85333477 18.2001986 83.55357814 18.16015625 87.25390625 C18.08498953 94.50253422 18.0346167 101.75105287 18 109 C18.99700928 108.99111755 19.99401855 108.98223511 21.02124023 108.9730835 C30.43701626 108.89184408 39.85272076 108.83196103 49.26876831 108.79275131 C54.10917823 108.77191515 58.94930423 108.74367034 63.78955078 108.69824219 C68.46447524 108.65464242 73.13912734 108.63083304 77.8142395 108.62049103 C79.59396652 108.61312496 81.37367936 108.59874078 83.15328979 108.57707977 C85.65459906 108.54785722 88.15479632 108.54405175 90.65625 108.54589844 C91.38489761 108.53151733 92.11354523 108.51713623 92.86427307 108.50231934 C98.86950822 108.54999968 104.09551729 110.32006747 108.56872559 114.44744492 C112.67417304 119.10411679 113.49205524 123.57055187 113.40234375 129.62109375 C112.66480259 133.98189534 110.28848607 137.13484515 107 140 C101.53980964 143.40924598 97.03867518 144.58006961 90.65625 144.45410156 C89.86504257 144.45468567 89.07383514 144.45526978 88.25865173 144.45587158 C85.67197088 144.45310922 83.08647676 144.42210699 80.5 144.390625 C78.69540028 144.38315599 76.8907924 144.37746618 75.08618164 144.37347412 C70.35794312 144.35826971 65.63020337 144.31903326 60.90216064 144.2746582 C56.06895696 144.2335929 51.23567196 144.21543915 46.40234375 144.1953125 C36.93467781 144.15253349 27.46738054 144.08434575 18 144 C18.0381672 151.94594711 18.09768703 159.89133418 18.18390274 167.83689117 C18.22328476 171.52702013 18.25551814 175.21691378 18.27099609 178.90722656 C18.28622464 182.47369583 18.32077753 186.03951781 18.36830902 189.60569763 C18.3902009 191.61728038 18.3924684 193.62904608 18.39434814 195.64074707 C18.50920109 202.86721454 18.9795121 207.90990156 23 214 C27.66283407 217.78855268 31.4320455 219.12490183 37.33746338 219.12457275 C38.62835625 219.12841728 38.62835625 219.12841728 39.94532776 219.13233948 C41.34959267 219.12918983 41.34959267 219.12918983 42.78222656 219.12597656 C44.27075386 219.12877876 44.27075386 219.12877876 45.78935242 219.13163757 C47.9440917 219.13564006 50.09883522 219.13771627 52.25357819 219.13809967 C56.83793268 219.14151769 61.42214566 219.16288362 66.00645065 219.18333054 C74.54094048 219.22133687 83.07527915 219.25261565 91.60986328 219.25048828 C97.54745652 219.24970056 103.48453154 219.27309154 109.42198944 219.3123703 C111.6817161 219.32282241 113.94150263 219.32436019 116.20124054 219.31671906 C119.36812741 219.30707947 122.53344958 219.32831483 125.70019531 219.35644531 C127.09231483 219.34115028 127.09231483 219.34115028 128.51255798 219.32554626 C134.8478206 219.42612806 139.09164808 220.93420532 144 225 C148.15973529 230.13801296 147.62531343 235.68690417 147 242 C145.14017898 247.48157774 142.06485645 250.15542234 137.1844902 253.0926609 C134.48889819 254.21228873 132.40370538 254.25738494 129.48565674 254.26742554 C127.80350571 254.28022049 127.80350571 254.28022049 126.08737183 254.29327393 C124.86132233 254.29236755 123.63527283 254.29146118 122.37207031 254.29052734 C121.07735809 254.29724457 119.78264587 254.30396179 118.44869995 254.31088257 C114.89890718 254.32854358 111.34921085 254.33323808 107.7993784 254.33451414 C105.57944552 254.33593665 103.35953709 254.34020822 101.13961029 254.34550858 C93.38863064 254.36401171 85.63771975 254.37217915 77.88671875 254.37060547 C70.67259645 254.36940514 63.45877387 254.39048521 56.24472737 254.4220928 C50.04328487 254.44829106 43.84194 254.45897123 37.64044261 254.45769465 C33.94013226 254.4571859 30.24008808 254.46282 26.53983307 254.48405075 C22.40818497 254.50710903 18.27720272 254.49789063 14.14550781 254.48583984 C12.92755524 254.49707886 11.70960266 254.50831787 10.45474243 254.51989746 C2.10054277 254.4580255 -3.15322258 253.22055784 -9.6875 247.75 C-15.71778438 240.578851 -18.14928982 234.97507778 -18.14717102 225.56880188 C-18.15084771 224.69800293 -18.1545244 223.82720397 -18.1583125 222.93001717 C-18.16936012 220.00062077 -18.17319502 217.07125983 -18.17700195 214.1418457 C-18.1832658 212.04603462 -18.18991253 209.95022464 -18.19691467 207.85441589 C-18.21433188 202.15176278 -18.22487847 196.44911806 -18.2331202 190.74644494 C-18.23826898 187.18427081 -18.24434478 183.62209928 -18.25063133 180.05992699 C-18.26968568 168.91667911 -18.28391614 157.77343788 -18.2922433 146.63017684 C-18.30201671 133.76364391 -18.32833805 120.89728297 -18.36874419 108.03081065 C-18.39889675 98.08845539 -18.41371138 88.14614946 -18.41702431 78.20374936 C-18.41937582 72.26444606 -18.42834947 66.32532645 -18.45348549 60.38607216 C-18.47675592 54.79725521 -18.48100342 49.20874304 -18.47072411 43.61989021 C-18.47022839 41.57045224 -18.47655945 39.52099931 -18.49028015 37.47160721 C-18.50798865 34.6694123 -18.5008979 31.86831236 -18.48774719 29.06611633 C-18.49871644 28.25880249 -18.50968568 27.45148864 -18.52098733 26.61971074 C-18.44170508 19.60216058 -16.20894408 14.49214203 -11.5625 9.25 C-3.97648515 2.58910891 -3.97648515 2.58910891 0 2 C0 1.34 0 0.68 0 0 Z " fill="#030303" transform="translate(540,385)"/>
<path d="M0 0 C0.33 0 0.66 0 1 0 C1 32.01 1 64.02 1 97 C-15.5 97 -32 97 -49 97 C-47.03204006 91.09612019 -45.38596858 86.41868106 -42.5859375 81.0625 C-42.25901413 80.43231461 -41.93209076 79.80212921 -41.59526062 79.15284729 C-40.52792692 77.0986616 -39.45156015 75.04936299 -38.375 73 C-37.61839775 71.54844031 -36.86246937 70.09652919 -36.10717773 68.64428711 C-34.93215129 66.38561848 -33.75646338 64.12731282 -32.57817078 61.87034607 C-29.8452439 56.63498012 -27.13874768 51.38668677 -24.44921875 46.12890625 C-17.74756439 33.03523005 -11.04969367 19.96176313 -3.78515625 7.16796875 C-2.45179784 4.80176816 -1.17679055 2.44599921 0 0 Z " fill="#F7F8F7" transform="translate(460,435)"/>
<path d="M0 0 C0.99 0.33 1.98 0.66 3 1 C3.10957031 1.63164063 3.21914062 2.26328125 3.33203125 2.9140625 C7.5712493 26.83290254 14.83651562 48.95777172 25 71 C25.4945166 72.07386963 25.4945166 72.07386963 25.99902344 73.16943359 C32.86232904 87.87502392 41.3172823 101.97695611 51 115 C51.73476563 116.0003125 52.46953125 117.000625 53.2265625 118.03125 C58.52260912 125.13716205 64.24113129 131.69485087 70.3359375 138.125 C73 141 73 141 75.11328125 143.6640625 C76.88368599 145.85599218 78.65577536 147.57406903 80.8125 149.375 C83.41060366 151.5876707 85.84325066 153.83412694 88.1875 156.3125 C93.29217678 161.4745327 99.16863459 165.7063628 105 170 C105.6585498 170.48694336 106.31709961 170.97388672 106.99560547 171.47558594 C116.9437129 178.78891651 127.10805017 185.19832241 138 191 C139.51187547 191.81611599 141.02359031 192.63252961 142.53515625 193.44921875 C144.04366882 194.25893506 145.55276905 195.06755765 147.0625 195.875 C147.75279297 196.24455811 148.44308594 196.61411621 149.15429688 196.99487305 C198.43367488 223.03209066 258.46156791 229.54539121 313 221 C313.97839844 220.84966309 314.95679688 220.69932617 315.96484375 220.54443359 C365.44333351 212.54983869 413.91339004 187.73037735 450.28125 153.5078125 C452.22505293 151.71482187 454.16750983 150.0049934 456.203125 148.32421875 C458.99092003 146.09071346 458.99092003 146.09071346 461.25 143.6875 C463 142 463 142 465 142 C463.7040639 144.84905441 462.33419618 146.92159788 460.12890625 149.13671875 C459.56083252 149.7090625 458.99275879 150.28140625 458.4074707 150.87109375 C457.79863037 151.47050781 457.18979004 152.06992187 456.5625 152.6875 C455.92852295 153.31398438 455.2945459 153.94046875 454.64135742 154.5859375 C449.35433074 159.75375801 443.88413479 164.51754496 438 169 C437.3287207 169.51530273 436.65744141 170.03060547 435.96582031 170.56152344 C417.95222166 184.33293139 399.13505624 196.05819018 378.26171875 205.00390625 C376.47782032 205.789561 374.71336742 206.61936742 372.95703125 207.46484375 C366.8610434 210.38777344 361.02914895 212.73948907 354.46484375 214.359375 C352.29944727 214.92217218 350.3201248 215.60054632 348.25 216.4375 C333.96647131 222.00516118 318.22872033 224.8644888 303.03979492 226.35400391 C299.01166246 226.71840756 299.01166246 226.71840756 295.05587769 227.51777649 C292.73515507 228.06212162 290.65332516 228.13417628 288.27001953 228.14526367 C287.33449249 228.15164352 286.39896545 228.15802338 285.43508911 228.16459656 C283.92421219 228.16626579 283.92421219 228.16626579 282.3828125 228.16796875 C280.80969803 228.17296135 280.80969803 228.17296135 279.20480347 228.17805481 C276.98061562 228.18311864 274.75642017 228.1854633 272.53222656 228.18530273 C269.17239334 228.18746944 265.81289927 228.20557593 262.453125 228.22460938 C251.42383968 228.25341129 240.86836423 228.01353125 230 226 C227.81344297 225.68096885 225.62601939 225.36777918 223.4375 225.0625 C202.39388135 221.76651154 181.53141886 215.41750225 162 207 C160.73872432 206.47939402 159.47698294 205.95991526 158.21484375 205.44140625 C149.79435402 201.93166702 142.03337911 197.861349 134.3046875 193.015625 C131.26353946 191.16074038 128.19018924 189.57785036 125 188 C109.87237302 179.12573858 96.19881139 167.85343678 83.27734375 156.0546875 C81.3262384 154.29434202 79.33986456 152.60815677 77.3125 150.9375 C74.19667364 148.28542454 71.57217052 145.35641122 68.9296875 142.23828125 C66.79123705 139.75785188 64.55364997 137.38793455 62.3125 135 C37 107.22174658 37 107.22174658 37 98 C36.34 98 35.68 98 35 98 C24.29358715 79.64976522 15.64230518 60.87593029 8.8125 40.75 C8.56218018 40.0170874 8.31186035 39.2841748 8.05395508 38.52905273 C6.57318855 34.0787409 5.43482153 29.64992112 4.47485352 25.06005859 C3.99726845 22.81484419 3.99726845 22.81484419 2.9453125 19.9921875 C1.70601194 16.06944274 1.29686227 12.20530718 0.875 8.125 C0.78863281 7.34125 0.70226562 6.5575 0.61328125 5.75 C0.4029851 3.83396841 0.20067256 1.9170634 0 0 Z " fill="#C3C4C4" transform="translate(244,557)"/>
<path d="M0 0 C2.58079728 3.02253948 3.50664403 5.31057117 4.1328125 9.21875 C4.38224609 10.74242187 4.38224609 10.74242187 4.63671875 12.296875 C4.79785156 13.35390625 4.95898438 14.4109375 5.125 15.5 C5.37830078 17.03914063 5.37830078 17.03914063 5.63671875 18.609375 C7.83809237 32.40696083 8.18639805 45.99770478 8.18530273 59.94213867 C8.18747798 63.03122989 8.20565526 66.11995654 8.22460938 69.20898438 C8.27025157 85.09691995 7.34826794 100.76131673 4.25 116.375 C4.08226074 117.23383789 3.91452148 118.09267578 3.74169922 118.97753906 C-0.39316731 139.30822328 -6.8521107 159.37277613 -16 178 C-16.6017515 179.25381556 -17.2033055 180.50772592 -17.8046875 181.76171875 C-30.07412207 207.08347678 -45.89465541 229.37899133 -65 250 C-65.99 249.34 -66.98 248.68 -68 248 C-67.55011719 247.58492187 -67.10023438 247.16984375 -66.63671875 246.7421875 C-60.01133863 240.39563099 -54.53100339 233.28865686 -49 226 C-48.32066406 225.11570312 -47.64132812 224.23140625 -46.94140625 223.3203125 C-37.259579 210.39779047 -29.11139247 196.66918202 -21.875 182.25 C-21.31852783 181.14325928 -20.76205566 180.03651855 -20.1887207 178.89624023 C-17.61349174 173.66376865 -15.31703755 168.690903 -14 163 C-13.34 163 -12.68 163 -12 163 C-11.773125 161.80375 -11.54625 160.6075 -11.3125 159.375 C-10.43085766 155.35793949 -9.15656075 151.65146064 -7.6875 147.8125 C-4.42679957 138.92492715 -2.49782576 129.78279368 -0.54345703 120.53417969 C-0.08464617 118.39471125 0.4088727 116.26272973 0.91015625 114.1328125 C4.92703824 96.32934559 5.18098445 77.98557633 5.1875 59.8125 C5.18849701 59.07809692 5.18949402 58.34369385 5.19052124 57.58703613 C5.18846938 44.2633828 4.74699709 31.18965786 1.9375 18.125 C0.6176222 11.95034678 -0.22748179 6.32546141 0 0 Z " fill="#E8E8E9" transform="translate(775,450)"/>
<path d="M0 0 C0.99 0.33 1.98 0.66 3 1 C3.10957031 1.63164063 3.21914062 2.26328125 3.33203125 2.9140625 C7.5712493 26.83290254 14.83651562 48.95777172 25 71 C25.4945166 72.07386963 25.4945166 72.07386963 25.99902344 73.16943359 C36.6300783 95.94795267 51.05736524 117.43042349 68 136 C67.67 136.66 67.34 137.32 67 138 C56.07926031 133.52468574 47.61590965 116.39574229 41 107 C40.57928223 106.41557129 40.15856445 105.83114258 39.72509766 105.22900391 C37.8526949 102.56060384 37 101.34368216 37 98 C36.34 98 35.68 98 35 98 C24.29358715 79.64976522 15.64230518 60.87593029 8.8125 40.75 C8.56218018 40.0170874 8.31186035 39.2841748 8.05395508 38.52905273 C6.57318855 34.0787409 5.43482153 29.64992112 4.47485352 25.06005859 C3.99726845 22.81484419 3.99726845 22.81484419 2.9453125 19.9921875 C1.70601194 16.06944274 1.29686227 12.20530718 0.875 8.125 C0.78863281 7.34125 0.70226562 6.5575 0.61328125 5.75 C0.4029851 3.83396841 0.20067256 1.9170634 0 0 Z " fill="#CECECF" transform="translate(244,557)"/>
<path d="M0 0 C0.99 0 1.98 0 3 0 C1.53944029 4.88780095 0.07364939 9.77360031 -1.4296875 14.6484375 C-13.17165355 52.88313913 -17.32590015 90.7692094 -14.22265625 130.76171875 C-13.89615854 135.51025559 -13.90929783 140.24317507 -14 145 C-20.45435929 138.54564071 -18.24901991 120.27680079 -18.27575684 111.69851685 C-18.27420137 109.48137917 -18.2691557 107.26424139 -18.26074219 105.04711914 C-18.25005197 101.70375291 -18.26067756 98.36092781 -18.2734375 95.01757812 C-18.2842247 79.03205041 -17.61557834 63.14226226 -14.375 47.4375 C-14.21386719 46.64287354 -14.05273438 45.84824707 -13.88671875 45.02954102 C-10.58857784 29.69523252 -5.47487563 14.67914626 0 0 Z " fill="#DADADB" transform="translate(259,411)"/>
<path d="M0 0 C-1.17464159 3.52392476 -2.19258702 4.1504667 -5.125 6.3125 C-8.16671193 8.59257114 -11.0955998 10.91269603 -13.9375 13.4375 C-17 16 -17 16 -19 16 C-19 16.66 -19 17.32 -19 18 C-20.4609375 19.5078125 -20.4609375 19.5078125 -22.375 21.125 C-23.00148438 21.66382813 -23.62796875 22.20265625 -24.2734375 22.7578125 C-26 24 -26 24 -28 24 C-28 24.66 -28 25.32 -28 26 C-29.875 28.125 -29.875 28.125 -32 30 C-32.66 30 -33.32 30 -34 30 C-34.226875 30.556875 -34.45375 31.11375 -34.6875 31.6875 C-36.3592504 34.63296499 -38.58281215 36.64324185 -41 39 C-41.66 39.99 -42.32 40.98 -43 42 C-43.66 42 -44.32 42 -45 42 C-45.2475 42.556875 -45.495 43.11375 -45.75 43.6875 C-47 46 -47 46 -49.0625 48.5625 C-51.16384349 50.92026019 -51.16384349 50.92026019 -52 54 C-52.66 54 -53.32 54 -54 54 C-54.26425781 54.56589844 -54.52851563 55.13179688 -54.80078125 55.71484375 C-56.0875163 58.16676559 -57.56983342 60.31553521 -59.1875 62.5625 C-66.05682884 71.76688266 -66.05682884 71.76688266 -71 82 C-71.66 82 -72.32 82 -73 82 C-73.2475 82.82113281 -73.495 83.64226562 -73.75 84.48828125 C-75.20309878 88.57058064 -77.03795473 92.33094362 -79 96.1875 C-79.35578125 96.89841797 -79.7115625 97.60933594 -80.078125 98.34179688 C-81.60206391 101.36408617 -83.11709369 104.17564054 -85 107 C-85.69100553 108.99172182 -86.35902703 110.99161804 -87 113 C-87.495 113.99 -87.495 113.99 -88 115 C-88.66 115 -89.32 115 -90 115 C-88.87106499 108.32112575 -86.7589939 102.91343165 -83.5 97 C-82.84004028 95.77603516 -82.84004028 95.77603516 -82.16674805 94.52734375 C-77.65527554 86.22758128 -72.89941678 78.07572444 -68 70 C-67.39542969 68.99453125 -66.79085938 67.9890625 -66.16796875 66.953125 C-62.24809041 60.60053527 -57.83718675 54.71276534 -53.234375 48.84765625 C-51.89175184 47.13651589 -50.57873899 45.40058889 -49.328125 43.62109375 C-48.88984375 43.08613281 -48.4515625 42.55117188 -48 42 C-47.34 42 -46.68 42 -46 42 C-45.74605469 41.43023437 -45.49210937 40.86046875 -45.23046875 40.2734375 C-37.97736573 26.87246621 -21.91593754 15.0468981 -10 6 C-9.23558594 5.401875 -8.47117187 4.80375 -7.68359375 4.1875 C-2.2650463 0 -2.2650463 0 0 0 Z " fill="#F3F2F2" transform="translate(351,295)"/>
<path d="M0 0 C-1.2959361 2.84905441 -2.66580382 4.92159788 -4.87109375 7.13671875 C-5.43916748 7.7090625 -6.00724121 8.28140625 -6.5925293 8.87109375 C-7.50578979 9.77021484 -7.50578979 9.77021484 -8.4375 10.6875 C-9.07147705 11.31398438 -9.7054541 11.94046875 -10.35864258 12.5859375 C-15.64566926 17.75375801 -21.11586521 22.51754496 -27 27 C-27.6712793 27.51530273 -28.34255859 28.03060547 -29.03417969 28.56152344 C-47.73898018 42.86135565 -67.30020219 54.79537265 -89 64 C-90.03640625 64.44666016 -90.03640625 64.44666016 -91.09375 64.90234375 C-92.72738525 65.60571448 -94.36339316 66.30357156 -96 67 C-96 65.68 -96 64.36 -96 63 C-94.18242188 62.21689453 -94.18242188 62.21689453 -92.328125 61.41796875 C-63.72236227 48.92565168 -37.498254 32.94358171 -14.71875 11.5078125 C-12.77494707 9.71482187 -10.83249017 8.0049934 -8.796875 6.32421875 C-6.00907997 4.09071346 -6.00907997 4.09071346 -3.75 1.6875 C-2 0 -2 0 0 0 Z " fill="#D0D1D2" transform="translate(709,699)"/>
<path d="M0 0 C1.07080078 1.78710938 1.07080078 1.78710938 2 4 C1.10270811 6.6980639 0.14298957 8.98026227 -1.125 11.5 C-1.48754883 12.24121094 -1.85009766 12.98242188 -2.22363281 13.74609375 C-14.4477615 38.17402839 -30.483272 60.01430402 -49 80 C-49.99 79.34 -50.98 78.68 -52 78 C-51.55011719 77.58492187 -51.10023438 77.16984375 -50.63671875 76.7421875 C-44.01133863 70.39563099 -38.53100339 63.28865686 -33 56 C-32.32066406 55.11570312 -31.64132812 54.23140625 -30.94140625 53.3203125 C-18.46931918 36.67357674 -8.98863116 18.6883882 0 0 Z " fill="#E1E2E1" transform="translate(759,620)"/>
<path d="M0 0 C1 3 1 3 0.2590332 4.69824219 C-0.13968994 5.30829102 -0.53841309 5.91833984 -0.94921875 6.546875 C-1.38556641 7.2275 -1.82191406 7.908125 -2.27148438 8.609375 C-2.73876953 9.31578125 -3.20605469 10.0221875 -3.6875 10.75 C-4.58852958 12.13978952 -5.48828122 13.53040843 -6.38671875 14.921875 C-6.8254834 15.59798828 -7.26424805 16.27410156 -7.71630859 16.97070312 C-9.58429226 19.92366627 -11.29545335 22.95017883 -13 26 C-13.66 26 -14.32 26 -15 26 C-15.2475 26.82113281 -15.495 27.64226562 -15.75 28.48828125 C-17.20309878 32.57058064 -19.03795473 36.33094362 -21 40.1875 C-21.35578125 40.89841797 -21.7115625 41.60933594 -22.078125 42.34179688 C-23.60206391 45.36408617 -25.11709369 48.17564054 -27 51 C-27.69100553 52.99172182 -28.35902703 54.99161804 -29 57 C-29.33 57.66 -29.66 58.32 -30 59 C-30.66 59 -31.32 59 -32 59 C-30.87106499 52.32112575 -28.7589939 46.91343165 -25.5 41 C-25.06002686 40.18402344 -24.62005371 39.36804688 -24.16674805 38.52734375 C-6.48810431 6.00391742 -6.48810431 6.00391742 0 0 Z " fill="#E5E5E5" transform="translate(293,351)"/>
<path d="M0 0 C3.68190844 1.22730281 3.91263887 2.12921774 5.75 5.4375 C13.31807736 18.53324171 22.81135227 30.83297219 33 42 C32.505 42.99 32.505 42.99 32 44 C21.07926031 39.52468574 12.61590965 22.39574229 6 13 C5.57928223 12.41557129 5.15856445 11.83114258 4.72509766 11.22900391 C2.8526949 8.56060384 2 7.34368216 2 4 C1.34 4 0.68 4 0 4 C0 2.68 0 1.36 0 0 Z " fill="#CFD0CC" transform="translate(279,651)"/>
<path d="M0 0 C4.56099793 1.52033264 5.37745437 4.92669388 7.52734375 9.046875 C9.49077964 12.98416288 11.31363067 16.93653442 13 21 C13.46277344 22.09957031 13.92554688 23.19914062 14.40234375 24.33203125 C17.4849215 31.77424051 20.14481914 39.26127569 22.43920898 46.98461914 C23.22115755 50.25822855 23.22115755 50.25822855 25 53 C25.04063832 54.66617115 25.042721 56.33388095 25 58 C21.94136443 56.47068221 21.8370621 54.18871549 20.75 51 C20.53239014 50.37552979 20.31478027 49.75105957 20.09057617 49.10766602 C18.9254851 45.7578742 17.79998486 42.39619559 16.69140625 39.02734375 C13.0000438 27.99048916 8.22481984 17.64317519 3.04980469 7.22558594 C1.9302986 4.85223304 0.95190464 2.44483531 0 0 Z " fill="#F1F1F1" transform="translate(748,381)"/>
<path d="M0 0 C0.99 0.495 0.99 0.495 2 1 C2.03758423 2.28293945 2.03758423 2.28293945 2.07592773 3.59179688 C2.19376182 7.56128265 2.31440322 11.53067448 2.4375 15.5 C2.45956512 16.21184448 2.48163025 16.92368896 2.50436401 17.65710449 C2.75154817 25.52819742 3.00793326 33.39330175 3.5625 41.25 C3.98037237 47.17856431 4.1132954 53.05828578 4 59 C-1.69034151 53.30965849 -0.17246328 38.20120633 -0.1953125 30.46875 C-0.18964186 26.81225548 -0.15908709 23.15632292 -0.125 19.5 C-0.11493815 17.59766102 -0.10581803 15.69531683 -0.09765625 13.79296875 C-0.07592419 9.19518019 -0.04157586 4.59765017 0 0 Z " fill="#D7D7D7" transform="translate(241,497)"/>
<path d="M0 0 C2.58079728 3.02253948 3.50664403 5.31057117 4.1328125 9.21875 C4.38224609 10.74242187 4.38224609 10.74242187 4.63671875 12.296875 C4.79785156 13.35390625 4.95898438 14.4109375 5.125 15.5 C5.29386719 16.52609375 5.46273437 17.5521875 5.63671875 18.609375 C7.46937186 30.09592522 8.18641421 41.13228707 7.5625 52.75 C7.51029297 53.84054687 7.45808594 54.93109375 7.40429688 56.0546875 C7.27650075 58.70355262 7.14165887 61.35184641 7 64 C6.67 64 6.34 64 6 64 C5.96036133 63.04971924 5.92072266 62.09943848 5.87988281 61.12036133 C4.84353745 36.4578758 4.84353745 36.4578758 0.8046875 12.14453125 C-0.10959872 8.02831029 -0.14296372 4.20789885 0 0 Z " fill="#EBEDEC" transform="translate(775,450)"/>
<path d="M0 0 C0.66 0 1.32 0 2 0 C1.65372744 5.43542995 -1.57532424 8.64286537 -4.9375 12.625 C-5.51781982 13.32560547 -6.09813965 14.02621094 -6.69604492 14.74804688 C-11.62516616 20.65785575 -16.73378555 26.38904465 -22 32 C-22.99 31.34 -23.98 30.68 -25 30 C-24.55011719 29.58492187 -24.10023438 29.16984375 -23.63671875 28.7421875 C-15.58910918 21.03325489 -8.97947762 12.11422108 -2.4375 3.125 C-1.2309375 1.578125 -1.2309375 1.578125 0 0 Z " fill="#D7D9D8" transform="translate(732,668)"/>
<path d="M0 0 C0.99 0 1.98 0 3 0 C1.50970474 4.97954154 0.01506767 9.95762019 -1.5 14.9296875 C-4.22705034 23.90555848 -6.88157885 32.8573403 -9 42 C-9.99 41.34 -10.98 40.68 -12 40 C-9.2634969 26.3174845 -4.86292559 13.05747253 0 0 Z " fill="#E4E5E4" transform="translate(259,411)"/>
<path d="M0 0 C3.91347385 0.6042864 7.6796745 1.40193424 11.5 2.4375 C18.26400222 4.17098801 25.07894973 5.1297496 32 6 C30.68 6.33 29.36 6.66 28 7 C28 7.66 28 8.32 28 9 C28.66 9.33 29.32 9.66 30 10 C27.73411808 9.54682362 25.46838346 9.09300653 23.203125 8.63671875 C20.86129793 8.17120922 18.51720493 7.71705849 16.171875 7.26953125 C15.51324463 7.14231689 14.85461426 7.01510254 14.17602539 6.8840332 C12.25724427 6.51346934 10.33762051 6.14727686 8.41796875 5.78125 C5.42678335 5.09755048 2.79899038 4.23688718 0 3 C0 2.01 0 1.02 0 0 Z " fill="#C2C2C3" transform="translate(439,772)"/>
<path d="M0 0 C1 3 1 3 0.2590332 4.69824219 C-0.13968994 5.30829102 -0.53841309 5.91833984 -0.94921875 6.546875 C-1.38556641 7.2275 -1.82191406 7.908125 -2.27148438 8.609375 C-2.73876953 9.31578125 -3.20605469 10.0221875 -3.6875 10.75 C-4.58852958 12.13978952 -5.48828122 13.53040843 -6.38671875 14.921875 C-7.04486572 15.93604492 -7.04486572 15.93604492 -7.71630859 16.97070312 C-9.58429226 19.92366627 -11.29545335 22.95017883 -13 26 C-13.66 26 -14.32 26 -15 26 C-15 26.66 -15 27.32 -15 28 C-15.99 27.67 -16.98 27.34 -18 27 C-14.0883079 20.60920952 -10.16562359 14.22469726 -6.1875 7.875 C-5.64480469 7.00617188 -5.10210937 6.13734375 -4.54296875 5.2421875 C-3.16596472 3.24117404 -1.78275409 1.63820646 0 0 Z " fill="#E7E7E7" transform="translate(293,351)"/>
<path d="M0 0 C0.99 0.33 1.98 0.66 3 1 C3.70776367 2.81005859 3.70776367 2.81005859 4.16796875 5.1484375 C4.33876953 5.98890625 4.50957031 6.829375 4.68554688 7.6953125 C4.93401367 9.02175781 4.93401367 9.02175781 5.1875 10.375 C5.36474609 11.2515625 5.54199219 12.128125 5.72460938 13.03125 C6.39618474 16.42283525 7 19.53394489 7 23 C5.68 22.67 4.36 22.34 3 22 C2.49599549 19.08397391 1.99665334 16.16727908 1.5 13.25 C1.35691406 12.425 1.21382812 11.6 1.06640625 10.75 C0.93105469 9.95078125 0.79570312 9.1515625 0.65625 8.328125 C0.53056641 7.5949707 0.40488281 6.86181641 0.27539062 6.10644531 C0 4 0 4 0 0 Z " fill="#D5D5D6" transform="translate(244,557)"/>
<path d="M0 0 C0.33 0.99 0.66 1.98 1 3 C-5.6 4.32 -12.2 5.64 -19 7 C-19.66 6.01 -20.32 5.02 -21 4 C-18.66974815 3.32034321 -16.33749542 2.65396847 -14 2 C-13.32839844 1.80921875 -12.65679688 1.6184375 -11.96484375 1.421875 C-7.87292603 0.31808217 -4.2789167 -0.21394583 0 0 Z " fill="#D3D2D4" transform="translate(577,775)"/>
<path d="M0 0 C0.99 0.33 1.98 0.66 3 1 C3 1.66 3 2.32 3 3 C3.53109375 3.20625 4.0621875 3.4125 4.609375 3.625 C8.00773436 5.57961192 10.51055928 8.22123717 13.25 11 C13.80429687 11.5465625 14.35859375 12.093125 14.9296875 12.65625 C19 16.7466133 19 16.7466133 19 19 C19.99 19.33 20.98 19.66 22 20 C21.67 20.99 21.34 21.98 21 23 C19.29115995 21.37660195 17.62553283 19.70680947 16 18 C16 17.34 16 16.68 16 16 C15.13375 15.62875 15.13375 15.62875 14.25 15.25 C11.67060021 13.81700012 9.93878408 12.21575324 8 10 C8 9.34 8 8.68 8 8 C7.01 7.67 6.02 7.34 5 7 C5 6.34 5 5.68 5 5 C4.360625 4.731875 3.72125 4.46375 3.0625 4.1875 C1 3 1 3 0 0 Z " fill="#F2F2F2" transform="translate(692,310)"/>
<path d="M0 0 C0.33 0 0.66 0 1 0 C0.59248958 7.39139585 -0.58507186 13.99822721 -3 21 C-3.66 21 -4.32 21 -5 21 C-5.45510807 14.32508169 -3.7672426 8.40625443 -2 2 C-1.34 2 -0.68 2 0 2 C0 1.34 0 0.68 0 0 Z " fill="#E1E1E1" transform="translate(777,566)"/>
<path d="M0 0 C0 0.66 0 1.32 0 2 C-0.78246094 2.20496094 -1.56492187 2.40992188 -2.37109375 2.62109375 C-3.38300781 2.89050781 -4.39492188 3.15992188 -5.4375 3.4375 C-6.44683594 3.70433594 -7.45617187 3.97117187 -8.49609375 4.24609375 C-10.91752001 4.75978077 -10.91752001 4.75978077 -12 6 C-13.66617115 6.04063832 -15.33388095 6.042721 -17 6 C-17 5.01 -17 4.02 -17 3 C-14.92085336 2.29994051 -12.83648414 1.61537756 -10.75 0.9375 C-9.58984375 0.55464844 -8.4296875 0.17179688 -7.234375 -0.22265625 C-4.19922915 -0.95211763 -2.84296787 -1.11889082 0 0 Z " fill="#BFC1C0" transform="translate(594,771)"/>
<path d="M0 0 C0.99 0 1.98 0 3 0 C4.00904375 2.2463236 5.0073602 4.49643937 6 6.75 C6.42925781 7.70132813 6.42925781 7.70132813 6.8671875 8.671875 C8.36006702 12.08417104 9 14.20781917 9 18 C8.34 18 7.68 18 7 18 C6.20576139 16.43880578 5.41472877 14.87598036 4.625 13.3125 C3.96371094 12.00732422 3.96371094 12.00732422 3.2890625 10.67578125 C0 3.84848485 0 3.84848485 0 0 Z " fill="#C5C5C5" transform="translate(259,612)"/>
<path d="M0 0 C0.66 0.99 1.32 1.98 2 3 C-4.37358711 3.96205088 -10.55929529 4.10655578 -17 4 C-16.67 3.34 -16.34 2.68 -16 2 C-13.671875 1.3671875 -13.671875 1.3671875 -10.75 0.875 C-9.79609375 0.70742188 -8.8421875 0.53984375 -7.859375 0.3671875 C-5.14679045 0.01885014 -2.72210002 -0.29098311 0 0 Z " fill="#BDBDBD" transform="translate(556,779)"/>
<path d="M0 0 C0.43570312 0.37511719 0.87140625 0.75023437 1.3203125 1.13671875 C1.91585938 1.64847656 2.51140625 2.16023437 3.125 2.6875 C4.07439453 3.50541016 4.07439453 3.50541016 5.04296875 4.33984375 C6.81640213 5.8442533 8.62132079 7.29792354 10.4375 8.75 C11.283125 9.4925 12.12875 10.235 13 11 C13 11.66 13 12.32 13 13 C8.86186295 12.46823005 6.72917682 10.22067834 3.75 7.4375 C2.85796875 6.61121094 1.9659375 5.78492188 1.046875 4.93359375 C0.37140625 4.29550781 -0.3040625 3.65742187 -1 3 C-0.67 2.01 -0.34 1.02 0 0 Z " fill="#CFCBC6" transform="translate(328,710)"/>
<path d="M0 0 C5.6143991 1.56448671 10.86810338 3.16395187 16 6 C14.390625 7.1484375 14.390625 7.1484375 12 8 C8.984375 7.1015625 8.984375 7.1015625 5.75 5.625 C4.67234375 5.14289062 3.5946875 4.66078125 2.484375 4.1640625 C1.66453125 3.77992188 0.8446875 3.39578125 0 3 C0 2.01 0 1.02 0 0 Z " fill="#CACACA" transform="translate(395,756)"/>
<path d="M0 0 C2 1 2 1 3 3 C-2.94 6.465 -2.94 6.465 -9 10 C-9.33 8.68 -9.66 7.36 -10 6 C-8.3811004 4.96951963 -6.75467511 3.95085322 -5.125 2.9375 C-4.22007812 2.36902344 -3.31515625 1.80054688 -2.3828125 1.21484375 C-1.20332031 0.61349609 -1.20332031 0.61349609 0 0 Z " fill="#D8D8D8" transform="translate(649,744)"/>
<path d="M0 0 C2.1272758 0.6172096 4.25176857 1.24401799 6.375 1.875 C8.15003906 2.39707031 8.15003906 2.39707031 9.9609375 2.9296875 C13 4 13 4 15 6 C11.06322574 7.31225809 9.2205738 6.3393954 5.3125 5.0625 C4.13300781 4.68222656 2.95351563 4.30195312 1.73828125 3.91015625 C0.83464844 3.60980469 -0.06898438 3.30945313 -1 3 C-0.67 2.01 -0.34 1.02 0 0 Z " fill="#BCBCBD" transform="translate(426,768)"/>
<path d="M0 0 C1.62276158 2.43414237 2.61744792 4.31319446 3.625 7 C3.88539063 7.680625 4.14578125 8.36125 4.4140625 9.0625 C5 11 5 11 5 14 C4.01 14.33 3.02 14.66 2 15 C0.68 11.04 -0.64 7.08 -2 3 C-1.34 3 -0.68 3 0 3 C0 2.01 0 1.02 0 0 Z " fill="#D8D8D8" transform="translate(256,598)"/>
<path d="M0 0 C0.33 0 0.66 0 1 0 C0.49228528 5.96564796 -1.38592128 10.63809899 -4 16 C-4.66 16 -5.32 16 -6 16 C-4.94513949 9.87903309 -3.34782974 5.24493326 0 0 Z " fill="#E3E3E4" transform="translate(267,394)"/>
<path d="M0 0 C-1.2013835 3.60415049 -2.26143988 4.14706011 -5.375 6.1875 C-6.16648437 6.71730469 -6.95796875 7.24710937 -7.7734375 7.79296875 C-10 9 -10 9 -13 9 C-13 9.66 -13 10.32 -13 11 C-13.66 10.67 -14.32 10.34 -15 10 C-11.33829025 5.99500496 -5.76187936 0 0 0 Z " fill="#F3F1F3" transform="translate(370,282)"/>
<path d="M0 0 C0.33 0 0.66 0 1 0 C2.22517308 5.66642551 2.09228867 11.23708518 2 17 C-1.21610938 13.78389062 -1.06155632 10.18218317 -1.125 5.8125 C-1 2 -1 2 0 0 Z " fill="#CCCCCC" transform="translate(243,539)"/>
<path d="M0 0 C2.20914 3.31371 2.22481553 4.3446021 2.125 8.1875 C2.10695312 9.08855469 2.08890625 9.98960937 2.0703125 10.91796875 C2.03550781 11.94857422 2.03550781 11.94857422 2 13 C1.01 12.34 0.02 11.68 -1 11 C-1.328125 8.65234375 -1.328125 8.65234375 -1.25 5.9375 C-1.23453125 5.03902344 -1.2190625 4.14054687 -1.203125 3.21484375 C-1 1 -1 1 0 0 Z " fill="#E5E5E5" transform="translate(242,486)"/>
<path d="M0 0 C3.3 0.33 6.6 0.66 10 1 C8.68 1.33 7.36 1.66 6 2 C6 2.66 6 3.32 6 4 C6.66 4.33 7.32 4.66 8 5 C4.7 4.34 1.4 3.68 -2 3 C-1.34 2.67 -0.68 2.34 0 2 C0 1.34 0 0.68 0 0 Z " fill="#D9D9D9" transform="translate(461,777)"/>
<path d="M0 0 C3.79598549 1.49128001 5.71720399 3.65733441 8 7 C8 7.99 8 8.98 8 10 C3.79236776 8.4972742 2.1972242 5.76667005 0 2 C0 1.34 0 0.68 0 0 Z " fill="#C2C7C3" transform="translate(288,666)"/>
<path d="M0 0 C1.32 0.33 2.64 0.66 4 1 C1.69 3.31 -0.62 5.62 -3 8 C-3.99 7.34 -4.98 6.68 -6 6 C-5.09972412 4.96468274 -4.17906965 3.94705835 -3.25 2.9375 C-2.48429688 2.08478516 -2.48429688 2.08478516 -1.703125 1.21484375 C-1.14109375 0.81394531 -0.5790625 0.41304687 0 0 Z " fill="#DCDCDE" transform="translate(713,692)"/>
<path d="M0 0 C5.34844008 0.53484401 9.35796103 2.46690767 14 5 C14 5.66 14 6.32 14 7 C9.0276578 5.50829734 4.58154261 3.39542583 0 1 C0 0.67 0 0.34 0 0 Z " fill="#EFEFF0" transform="translate(620,265)"/>
<path d="M0 0 C2.05078125 0.03255208 4.1015625 0.06510417 6.15234375 0.09765625 C6.15234375 1.08765625 6.15234375 2.07765625 6.15234375 3.09765625 C3.84234375 3.42765625 1.53234375 3.75765625 -0.84765625 4.09765625 C-1.50765625 3.10765625 -2.16765625 2.11765625 -2.84765625 1.09765625 C-1.84765625 0.09765625 -1.84765625 0.09765625 0 0 Z " fill="#C9CACA" transform="translate(558.84765625,777.90234375)"/>
<path d="M0 0 C2.45634954 4.73724554 4.31057116 8.56500474 4 14 C2 13 2 13 0.9296875 10.27734375 C0.58164062 9.17519531 0.23359375 8.07304687 -0.125 6.9375 C-0.47820313 5.83277344 -0.83140625 4.72804688 -1.1953125 3.58984375 C-1.46085938 2.73519531 -1.72640625 1.88054687 -2 1 C-1.34 0.67 -0.68 0.34 0 0 Z " fill="#F4F5F4" transform="translate(769,425)"/>
<path d="M0 0 C0.66 0.33 1.32 0.66 2 1 C2.125 8.75 2.125 8.75 1 11 C0.34 11 -0.32 11 -1 11 C-0.67 7.37 -0.34 3.74 0 0 Z " fill="#E7E7E5" transform="translate(780,540)"/>
<path d="M0 0 C0.33 0 0.66 0 1 0 C1.25 3.3125 1.25 3.3125 1 7 C-1 8.9375 -1 8.9375 -3 10 C-3.66 9.67 -4.32 9.34 -5 9 C-3.35 6.03 -1.7 3.06 0 0 Z " fill="#E6E5E3" transform="translate(459,437)"/>
<path d="M0 0 C3.71888239 0.50712033 6.73454239 1.11608215 10 3 C6.88228073 4.60339848 5.60988311 5.18974141 2.1875 4.125 C1.465625 3.75375 0.74375 3.3825 0 3 C0 2.01 0 1.02 0 0 Z " fill="#C8C8C8" transform="translate(439,772)"/>
<path d="M0 0 C-1.5830577 4.2742558 -4.50568404 6.26531794 -8 9 C-7.53918323 4.85264908 -4.48412936 0 0 0 Z " fill="#C2C3C3" transform="translate(709,699)"/>
<path d="M0 0 C0.99 0 1.98 0 3 0 C2.67 3.63 2.34 7.26 2 11 C-1 7 -1 7 -0.6875 3.25 C-0.3471875 1.64125 -0.3471875 1.64125 0 0 Z " fill="#E5E5E5" transform="translate(244,465)"/>
<path d="M0 0 C0.99 0 1.98 0 3 0 C2.01 3.3 1.02 6.6 0 10 C-0.66 9.67 -1.32 9.34 -2 9 C-1.34 6.03 -0.68 3.06 0 0 Z " fill="#E1E1E2" transform="translate(259,411)"/>
<path d="M0 0 C0.99 0.33 1.98 0.66 3 1 C1.68 3.31 0.36 5.62 -1 8 C-1.99 7.34 -2.98 6.68 -4 6 C-2.68 4.02 -1.36 2.04 0 0 Z " fill="#F0F0F0" transform="translate(285,362)"/>
<path d="M0 0 C3.16115776 1.36983503 3.9927092 1.9890638 6 5 C5.34 5.66 4.68 6.32 4 7 C2.35 5.02 0.7 3.04 -1 1 C-0.67 0.67 -0.34 0.34 0 0 Z " fill="#B4B4B4" transform="translate(311,694)"/>
<path d="M0 0 C0.99 0.33 1.98 0.66 3 1 C4.1875 4.0625 4.1875 4.0625 5 7 C4.01 7 3.02 7 2 7 C2 6.01 2 5.02 2 4 C1.34 4 0.68 4 0 4 C0 2.68 0 1.36 0 0 Z " fill="#C5C4C6" transform="translate(279,651)"/>
<path d="M0 0 C0.66 0 1.32 0 2 0 C5.11450382 4.15267176 5.11450382 4.15267176 4.6875 7.3125 C4.460625 7.869375 4.23375 8.42625 4 9 C4 8.34 4 7.68 4 7 C3.34 7 2.68 7 2 7 C0.5393715 4.35261084 0 3.10551666 0 0 Z " fill="#F3F4F4" transform="translate(741,368)"/>
<path d="M0 0 C-1.45537568 0.83848804 -2.91440373 1.67063934 -4.375 2.5 C-5.59316406 3.19609375 -5.59316406 3.19609375 -6.8359375 3.90625 C-9 5 -9 5 -11 5 C-11 4.34 -11 3.68 -11 3 C-9.73581754 2.30034557 -8.46334598 1.61565237 -7.1875 0.9375 C-6.47980469 0.55464844 -5.77210938 0.17179687 -5.04296875 -0.22265625 C-3 -1 -3 -1 0 0 Z " fill="#F2F3F2" transform="translate(388,274)"/>
<path d="M0 0 C4.875 2.625 4.875 2.625 6 6 C3.13275314 5.42655063 2.1385485 5.1385485 0 3 C0 2.01 0 1.02 0 0 Z " fill="#C4C5C5" transform="translate(335,717)"/>
<path d="M0 0 C2.88575819 0.39803561 3.82189513 0.79009069 5.75 3.0625 C6.1625 3.701875 6.575 4.34125 7 5 C5.68 5 4.36 5 3 5 C1.25 2.5 1.25 2.5 0 0 Z " fill="#C5C5C6" transform="translate(305,689)"/>
<path d="M0 0 C0.33 0 0.66 0 1 0 C0.38461538 6.52307692 0.38461538 6.52307692 -1.5625 8.9375 C-2.036875 9.288125 -2.51125 9.63875 -3 10 C-2.49287967 6.28111761 -1.88391785 3.26545761 0 0 Z " fill="#DBDBDB" transform="translate(267,394)"/>
<path d="M0 0 C0.99 0.33 1.98 0.66 3 1 C3.33 2.98 3.66 4.96 4 7 C3.34 7 2.68 7 2 7 C0.5393715 4.35261084 0 3.10551666 0 0 Z " fill="#C4C5C5" transform="translate(264,623)"/>
<path d="M0 0 C0.33 0 0.66 0 1 0 C1.33 3.96 1.66 7.92 2 12 C-1 9 -1 9 -1.07421875 6.73828125 C-0.94660156 5.93777344 -0.81898438 5.13726562 -0.6875 4.3125 C-0.56761719 3.50425781 -0.44773437 2.69601562 -0.32421875 1.86328125 C-0.21722656 1.24839844 -0.11023438 0.63351562 0 0 Z " fill="#F4F4F4" transform="translate(780,470)"/>
<path d="M0 0 C0.33 0.66 0.66 1.32 1 2 C1.66 2.33 2.32 2.66 3 3 C2.34 3 1.68 3 1 3 C1.33 3.99 1.66 4.98 2 6 C0.35 6.33 -1.3 6.66 -3 7 C-2.01 4.69 -1.02 2.38 0 0 Z " fill="#E6E6E3" transform="translate(443,467)"/>
<path d="M0 0 C1.61949011 2.57213134 2.04408751 3.67669159 1.625 6.75 C1.41875 7.4925 1.2125 8.235 1 9 C0.01 8.34 -0.98 7.68 -2 7 C-1.125 2.25 -1.125 2.25 0 0 Z " fill="#EAEAEA" transform="translate(249,444)"/>
<path d="M0 0 C1.9375 0.625 1.9375 0.625 4 2 C4.75 5.125 4.75 5.125 5 8 C4.34 8 3.68 8 3 8 C0 2.25 0 2.25 0 0 Z " fill="#ECEAEB" transform="translate(754,393)"/>
<path d="M0 0 C3 3.75 3 3.75 3 6 C2.01 6.33 1.02 6.66 0 7 C-0.66 5.35 -1.32 3.7 -2 2 C-1.34 2 -0.68 2 0 2 C0 1.34 0 0.68 0 0 Z " fill="#D5D5D6" transform="translate(263,617)"/>
<path d="M0 0 C0.66 0.66 1.32 1.32 2 2 C1.33333333 4 0.66666667 6 0 8 C-0.99 7.34 -1.98 6.68 -3 6 C-2.01 4.02 -1.02 2.04 0 0 Z " fill="#E4E4E3" transform="translate(368,611)"/>
<path d="M0 0 C0.33 0 0.66 0 1 0 C1.125 5.75 1.125 5.75 0 8 C-0.66 8 -1.32 8 -2 8 C-1.125 1.125 -1.125 1.125 0 0 Z " fill="#E0E0E0" transform="translate(766,603)"/>
<path d="M0 0 C0.33 0.66 0.66 1.32 1 2 C1.66 2.33 2.32 2.66 3 3 C2.34 3 1.68 3 1 3 C0.71125 3.639375 0.4225 4.27875 0.125 4.9375 C-1 7 -1 7 -3 8 C-1.125 2.25 -1.125 2.25 0 0 Z " fill="#D3D3D0" transform="translate(389,571)"/>
<path d="M0 0 C2.97 0 5.94 0 9 0 C8.34 1.32 7.68 2.64 7 4 C4.69 3.01 2.38 2.02 0 1 C0 0.67 0 0.34 0 0 Z " fill="#DBDADA" transform="translate(639,494)"/>
<path d="M0 0 C1.5625 1.6875 1.5625 1.6875 3 4 C2.6875 6.75 2.6875 6.75 2 9 C1.34 8.67 0.68 8.34 0 8 C0 5.36 0 2.72 0 0 Z " fill="#F2F3F3" transform="translate(775,450)"/>
<path d="M0 0 C0.66 0.33 1.32 0.66 2 1 C1.01 2.98 0.02 4.96 -1 7 C-2.5 5.625 -2.5 5.625 -4 4 C-4 3.34 -4 2.68 -4 2 C-2.125 0.9375 -2.125 0.9375 0 0 Z " fill="#E2E3E2" transform="translate(416,440)"/>
<path d="" fill="#FFFFFF" transform="translate(0,0)"/>
</svg>
